PathFileType   4   (X/Y/Z)
DataRate  CameraRate  NumFrames  NumMarkers  Units  OrigDataRate  OrigDataStartFrame  OrigNumFrames  
  120.0      120.0        7         37         mm      120.0          81        160
Frame#      Time                    midhip                           hip_r                           hip_l                          knee_r                          knee_l                         ankle_r                         ankle_l                         midasis                          asis_r                          asis_l                          psis_r                          psis_l                    epicondLat_r                    epicondLat_l                    epicondMed_r                    epicondMed_l                  malleolusLat_r                  malleolusLat_l                 malleolusMedv_r                 malleolusMedv_l                            neck                   subclavicle_r                   subclavicle_l                    sternalnotch                  xyphoidprocess                     thighwand_r                     thighwand_l                     upperleg1_r                     upperleg1_l                     upperleg2_r                     upperleg2_l                     shankwand_r                     shankwand_l                     lowerleg1_r                     lowerleg1_l                           toe_r                           toe_l            
              X1          Y1          Z1          X2          Y2          Z2          X3          Y3          Z3          X4          Y4          Z4          X5          Y5          Z5          X6          Y6          Z6          X7          Y7          Z7          X8          Y8          Z8          X9          Y9          Z9          X10          Y10          Z10          X11          Y11          Z11          X12          Y12          Z12          X13          Y13          Z13          X14          Y14          Z14          X15          Y15          Z15          X16          Y16          Z16          X17          Y17          Z17          X18          Y18          Z18          X19          Y19          Z19          X20          Y20          Z20          X21          Y21          Z21          X22          Y22          Z22          X23          Y23          Z23          X24          Y24          Z24          X25          Y25          Z25          X26          Y26          Z26          X27          Y27          Z27          X28          Y28          Z28          X29          Y29          Z29          X30          Y30          Z30          X31          Y31          Z31          X32          Y32          Z32          X33          Y33          Z33          X34          Y34          Z34          X35          Y35          Z35          X36          Y36          Z36          X37          Y37          Z37          

	81	0.76667	802.654	777.054	-236.452	795.888	776.403	-179.428	809.419	777.706	-293.476	895.915	431.910	-158.206	735.150	429.155	-274.876	782.133	107.153	-155.969	731.311	65.173	-259.972	839.401	848.376	-231.876	841.749	852.685	-122.054	837.053	844.066	-341.697	663.968	884.171	-190.733	666.086	880.006	-243.908	911.626	438.271	-98.144	763.869	414.769	-333.246	912.841	437.562	-223.912	756.681	423.889	-215.359	775.231	109.748	-119.201	722.449	64.361	-295.371	783.429	98.983	-188.692	726.747	68.106	-226.272	732.213	1275.398	-234.980	836.352	1200.176	-181.518	838.949	1200.343	-287.374	834.881	1200.150	-237.593	837.876	1098.039	-240.198	981.646	615.041	-127.270	873.831	557.333	-358.021	916.857	629.847	-92.877	857.014	606.586	-294.278	928.411	572.368	-98.990	843.591	549.766	-283.217	932.670	178.732	-125.503	725.770	161.986	-389.571	856.535	189.186	-147.557	727.658	157.732	-310.244	855.302	72.017	-144.157	817.916	45.160	-260.804
	82	0.77500	813.570	776.176	-236.676	807.046	775.625	-179.623	820.093	776.727	-293.729	909.430	431.897	-158.910	742.021	428.503	-274.525	814.369	101.735	-155.837	731.633	65.330	-259.463	850.335	847.539	-232.360	853.172	852.040	-122.572	847.498	843.038	-342.147	675.103	883.315	-190.241	677.129	879.014	-243.089	927.185	438.934	-98.775	767.622	414.512	-332.782	925.589	437.092	-223.214	765.026	422.408	-214.739	807.303	104.079	-119.083	722.647	64.615	-294.832	816.291	94.098	-188.656	727.118	68.030	-225.714	743.220	1274.497	-235.109	847.518	1199.091	-181.123	850.036	1199.527	-287.184	846.005	1199.206	-237.299	849.029	1097.103	-240.163	994.237	615.869	-128.462	880.496	555.400	-357.714	929.507	630.360	-93.510	864.607	604.995	-293.593	941.409	572.764	-99.354	851.447	549.033	-282.895	961.311	181.087	-125.368	726.584	162.036	-389.158	885.245	187.686	-147.218	728.626	157.719	-309.453	889.623	70.575	-142.882	818.078	45.029	-260.391
	83	0.78333	824.561	775.085	-236.893	818.258	774.589	-179.814	830.863	775.581	-293.972	923.488	431.054	-159.389	746.284	428.818	-274.191	846.674	96.900	-155.651	731.931	65.505	-258.914	861.336	846.500	-232.769	864.622	851.119	-122.998	858.049	841.880	-342.540	686.322	882.120	-189.727	688.254	877.715	-242.295	942.336	439.233	-99.216	771.447	414.256	-332.339	939.266	435.435	-222.036	769.913	423.054	-212.563	839.382	98.981	-118.925	722.831	64.884	-294.256	849.626	88.251	-188.148	727.424	67.881	-225.112	754.092	1273.684	-234.995	858.529	1197.605	-181.067	861.149	1198.236	-286.899	857.070	1197.832	-237.131	859.820	1095.727	-240.188	1006.565	616.097	-129.659	887.264	553.410	-357.314	941.859	629.952	-94.608	872.416	603.053	-292.948	954.190	572.945	-99.789	858.381	547.880	-281.958	989.506	183.787	-124.926	727.423	162.131	-388.740	913.592	185.139	-147.016	729.576	157.703	-308.524	923.773	69.611	-141.474	818.264	44.916	-259.973
	84	0.79167	835.711	773.768	-237.065	829.634	773.286	-179.962	841.789	774.250	-294.168	938.019	429.732	-159.582	749.936	430.040	-273.825	878.947	92.697	-155.425	732.214	65.688	-258.318	872.421	845.270	-233.092	876.115	849.931	-123.315	868.727	840.609	-342.868	697.612	880.612	-189.202	699.436	876.164	-241.551	957.111	439.189	-99.450	775.350	413.996	-331.910	952.977	433.835	-221.473	773.764	423.290	-211.798	871.390	94.492	-118.738	723.009	65.158	-293.634	882.951	82.422	-187.354	727.915	67.937	-224.492	765.327	1272.568	-234.549	869.727	1195.915	-181.860	872.393	1196.581	-287.059	868.292	1196.171	-237.609	870.668	1094.058	-240.712	1018.652	615.779	-130.842	894.128	551.346	-356.881	953.964	628.925	-95.229	880.542	600.960	-291.962	966.973	572.471	-100.154	865.124	546.006	-281.070	1017.190	186.829	-124.239	728.295	162.274	-388.309	941.285	182.107	-146.566	730.737	157.694	-307.822	957.640	69.181	-140.034	818.477	44.820	-259.559
	85	0.80000	847.047	772.250	-237.183	841.188	771.735	-180.057	852.905	772.764	-294.308	952.518	428.280	-159.500	753.777	432.363	-273.376	911.075	89.156	-155.177	732.498	65.880	-257.676	883.609	843.865	-233.322	887.664	848.487	-123.523	879.553	839.242	-343.120	708.962	878.820	-188.690	710.630	874.437	-240.898	971.548	438.835	-99.476	779.335	413.734	-331.485	966.165	432.651	-221.762	777.114	422.811	-213.532	903.238	90.625	-118.534	723.190	65.441	-292.966	915.230	79.949	-187.298	728.437	68.223	-223.847	776.669	1270.854	-234.151	881.132	1194.102	-182.406	883.552	1194.702	-287.622	879.567	1194.326	-238.157	881.814	1092.208	-241.204	1030.521	614.985	-131.981	901.085	549.197	-356.488	966.156	627.556	-95.414	888.899	598.927	-290.728	979.869	571.533	-100.551	871.862	543.903	-280.674	1044.308	190.196	-123.401	729.206	162.462	-387.856	968.989	181.622	-145.251	731.947	157.832	-307.291	991.100	69.333	-138.672	818.721	44.741	-259.153
	86	0.80833	858.539	770.562	-237.277	852.864	769.957	-180.134	864.214	771.166	-294.421	967.473	426.257	-159.211	757.315	435.454	-272.950	942.916	86.277	-154.928	732.794	66.094	-256.999	894.910	842.294	-233.463	899.273	846.802	-123.637	890.547	837.786	-343.288	720.356	876.786	-188.213	721.797	872.607	-240.366	985.681	438.215	-99.306	783.413	413.474	-331.059	980.243	430.337	-221.221	780.544	423.992	-214.052	934.826	87.377	-118.327	723.379	65.748	-292.262	947.171	78.911	-187.483	728.981	68.654	-223.176	787.727	1268.822	-234.379	892.498	1192.469	-182.034	894.498	1192.841	-287.944	890.710	1192.566	-238.121	893.180	1090.447	-240.948	1042.198	613.789	-133.048	908.132	546.956	-356.206	978.175	625.946	-96.072	897.955	597.357	-290.034	992.755	570.237	-100.992	878.941	542.204	-280.305	1070.813	193.864	-122.535	730.155	162.698	-387.366	996.426	183.102	-144.426	733.183	158.002	-306.876	1024.032	70.098	-137.504	818.996	44.681	-258.758
	87	0.81667	870.164	768.734	-237.363	864.626	767.991	-180.207	875.702	769.478	-294.518	980.523	423.902	-158.770	760.759	437.347	-272.595	974.320	84.041	-154.699	733.108	66.347	-256.307	906.328	840.570	-233.525	910.933	844.898	-123.680	901.723	836.243	-343.371	731.771	874.563	-187.757	732.936	870.720	-239.958	999.535	437.370	-98.968	787.601	413.225	-330.640	992.688	427.332	-220.091	784.895	426.404	-211.413	966.038	84.731	-118.131	723.579	66.099	-291.540	979.395	77.022	-187.281	729.493	69.158	-222.488	798.814	1266.509	-234.715	903.456	1190.748	-181.361	905.669	1191.110	-287.607	901.782	1190.829	-237.621	904.627	1088.719	-240.426	1053.720	612.271	-134.014	915.270	544.619	-356.087	989.864	624.075	-96.685	907.156	595.462	-290.164	1004.892	568.371	-101.215	886.290	540.536	-279.643	1096.662	197.808	-121.767	731.144	162.981	-386.831	1023.166	184.135	-144.465	734.395	158.194	-306.486	1056.321	71.479	-136.638	819.296	44.647	-258.380
